<?xml version="1.0" encoding="UTF-8" standalone="no" ?>
<svg xmlns="http://www.w3.org/2000/svg"
     width="370"
     height="92"
     version="1.1"
     viewBox="0 0 369.89473684210526 92.10526315789474">
    <g transform="matrix(4.004576659038902,0,0,4.004576659038902,-2.002288329519451,-2.002288329519451)"
       fill="#34d399">
        <g xmlns="http://www.w3.org/2000/svg">
            <g><path d="M23,8.5H1C0.724,8.5,0.5,8.276,0.5,8S0.724,7.5,1,7.5h22c0.276,0,0.5,0.224,0.5,0.5S23.276,8.5,23,8.5z" /></g>
            <g><path d="M23,16.5H1c-0.276,0-0.5-0.224-0.5-0.5c0-0.276,0.224-0.5,0.5-0.5h22c0.276,0,0.5,0.224,0.5,0.5    C23.5,16.276,23.276,16.5,23,16.5z" /></g>
            <g><path d="M8,23.5c-0.276,0-0.5-0.224-0.5-0.5V1c0-0.276,0.224-0.5,0.5-0.5S8.5,0.724,8.5,1v22C8.5,23.276,8.276,23.5,8,23.5z" /></g>
            <g><path d="M16,23.5c-0.276,0-0.5-0.224-0.5-0.5V1c0-0.276,0.224-0.5,0.5-0.5c0.276,0,0.5,0.224,0.5,0.5v22    C16.5,23.276,16.276,23.5,16,23.5z" /></g>
            <g><path d="M4,6.5C2.621,6.5,1.5,5.378,1.5,4S2.621,1.5,4,1.5S6.5,2.622,6.5,4S5.379,6.5,4,6.5z M4,2.5C3.173,2.5,2.5,3.173,2.5,4    S3.173,5.5,4,5.5S5.5,4.827,5.5,4S4.827,2.5,4,2.5z" /></g>
            <g><path d="M20,14.5c-1.379,0-2.5-1.122-2.5-2.5s1.121-2.5,2.5-2.5s2.5,1.122,2.5,2.5S21.379,14.5,20,14.5z M20,10.5    c-0.827,0-1.5,0.673-1.5,1.5s0.673,1.5,1.5,1.5s1.5-0.673,1.5-1.5S20.827,10.5,20,10.5z" /></g>
            <g><path d="M12,22.5c-1.379,0-2.5-1.122-2.5-2.5s1.121-2.5,2.5-2.5s2.5,1.122,2.5,2.5S13.379,22.5,12,22.5z M12,18.5    c-0.827,0-1.5,0.673-1.5,1.5s0.673,1.5,1.5,1.5s1.5-0.673,1.5-1.5S12.827,18.5,12,18.5z" /></g>
            <g><path d="M10,14.5c-0.128,0-0.256-0.049-0.354-0.146c-0.195-0.195-0.195-0.512,0-0.707l4-4c0.195-0.195,0.512-0.195,0.707,0    s0.195,0.512,0,0.707l-4,4C10.256,14.451,10.128,14.5,10,14.5z" /></g>
            <g><path d="M14,14.5c-0.128,0-0.256-0.049-0.354-0.146l-4-4c-0.195-0.195-0.195-0.512,0-0.707s0.512-0.195,0.707,0l4,4    c0.195,0.195,0.195,0.512,0,0.707C14.256,14.451,14.128,14.5,14,14.5z" /></g>
            <g><path d="M6,22.5c-0.128,0-0.256-0.049-0.354-0.146l-4-4c-0.195-0.195-0.195-0.512,0-0.707s0.512-0.195,0.707,0l4,4    c0.195,0.195,0.195,0.512,0,0.707C6.256,22.451,6.128,22.5,6,22.5z" /></g>
            <g><path d="M2,22.5c-0.128,0-0.256-0.049-0.354-0.146c-0.195-0.195-0.195-0.512,0-0.707l4-4c0.195-0.195,0.512-0.195,0.707,0    s0.195,0.512,0,0.707l-4,4C2.256,22.451,2.128,22.5,2,22.5z" /></g>
            <g><path d="M18,6.5c-0.128,0-0.256-0.049-0.354-0.146c-0.195-0.195-0.195-0.512,0-0.707l4-4c0.195-0.195,0.512-0.195,0.707,0    s0.195,0.512,0,0.707l-4,4C18.256,6.451,18.128,6.5,18,6.5z" /></g>
            <g><path d="M22,6.5c-0.128,0-0.256-0.049-0.354-0.146l-4-4c-0.195-0.195-0.195-0.512,0-0.707s0.512-0.195,0.707,0l4,4    c0.195,0.195,0.195,0.512,0,0.707C22.256,6.451,22.128,6.5,22,6.5z" /></g>
        </g>
    </g>
    <g transform="matrix(0.9346721977946763,0,0,0.9346721977946763,110.5045245726658,-3.739484087878065)"
       fill="#34d399">
        <path d="M3.32 17.92 l-1.44 0 l-0.28 -5.32 l2 0 z M6.84 17.92 l-1.44 0 l-0.28 -5.32 l2 0 z M18.759999999999998 40.24 c-4.44 0 -7.28 -2.12 -9.16 -5.32 l1.72 -1.04 c1.6 2.76 3.72 4.4 7.44 4.4 c4.52 0 7.32 -2.96 7.32 -7.2 c0 -4.4 -2.6 -6.84 -7.2 -6.84 c-1.8 0 -3.2 0.64 -3.96 1.2 l-0.88 -1.28 l10.24 -9.76 l-13.16 0 l0 -1.84 l15.84 0 l0 1.88 l-8.16 7.88 c5.92 0 9.36 3.52 9.36 8.72 c0 5.24 -3.72 9.2 -9.4 9.2 z M31.480000000000004 40 l0 -27.4 l8.44 0 c7.64 0 13.88 5.76 13.88 13.68 s-6.24 13.72 -13.88 13.72 l-8.44 0 z M39.84 14.559999999999999 l-6.24 0 l0 23.48 l6.24 0 c6.64 0 11.84 -5 11.84 -11.76 s-5.2 -11.72 -11.84 -11.72 z M58.32 17.92 l-1.44 0 l-0.28 -5.32 l2 0 z M61.84 17.92 l-1.44 0 l-0.28 -5.32 l2 0 z M83.36 40 l-2.12 0 l0 -25.44 l-8.92 0 l0 -1.96 l19.96 0 l0 1.96 l-8.92 0 l0 25.44 z M96.44 14.719999999999999 l-1.96 0 l0 -2.12 l1.96 0 l0 2.12 z M96.44 40 l-1.96 0 l0 -20 l1.96 0 l0 20 z M116.8 34.24 l1.52 1.04 c-1.84 3.04 -4.8 5 -9.2 5 c-5.88 0 -10.08 -4.52 -10.08 -10.36 c0 -5.76 4.2 -10.24 10.08 -10.24 c4.6 0 7.4 2 9.2 5.04 l-1.52 1.04 c-1.56 -2.56 -3.8 -4.16 -7.68 -4.16 c-4.84 0 -8.12 3.64 -8.12 8.36 s3.32 8.4 8.16 8.4 c3.88 0 6.08 -1.56 7.64 -4.12 z M131.48 29.48 l-10.76 0 l0 -1.84 l10.76 0 l0 1.84 z M144.71999999999997 40 l-2.12 0 l0 -25.44 l-8.92 0 l0 -1.96 l19.96 0 l0 1.96 l-8.92 0 l0 25.44 z M165.55999999999997 21.56 c-4.8 0 -8.36 3.68 -8.36 8.44 c0 4.72 3.56 8.4 8.36 8.4 c4.72 0 8.36 -3.64 8.36 -8.4 c0 -4.8 -3.64 -8.44 -8.36 -8.44 z M173.79999999999998 40 l0 -3.96 c-1.64 2.48 -4.52 4.24 -8.36 4.24 c-5.72 0 -10.2 -4.48 -10.2 -10.32 c0 -5.8 4.48 -10.28 10.2 -10.28 c3.84 0 6.68 1.72 8.36 4.12 l0 -3.8 l1.96 0 l0 20 l-1.96 0 z M196.11999999999998 34.24 l1.52 1.04 c-1.84 3.04 -4.8 5 -9.2 5 c-5.88 0 -10.08 -4.52 -10.08 -10.36 c0 -5.76 4.2 -10.24 10.08 -10.24 c4.6 0 7.4 2 9.2 5.04 l-1.52 1.04 c-1.56 -2.56 -3.8 -4.16 -7.68 -4.16 c-4.84 0 -8.12 3.64 -8.12 8.36 s3.32 8.4 8.16 8.4 c3.88 0 6.08 -1.56 7.64 -4.12 z M210.8 29.48 l-10.76 0 l0 -1.84 l10.76 0 l0 1.84 z M224.04000000000002 40 l-2.12 0 l0 -25.44 l-8.92 0 l0 -1.96 l19.96 0 l0 1.96 l-8.92 0 l0 25.44 z M244.88 19.68 c5.8 0 10.28 4.48 10.28 10.28 c0 5.84 -4.48 10.32 -10.28 10.32 c-5.84 0 -10.32 -4.48 -10.32 -10.32 c0 -5.8 4.48 -10.28 10.32 -10.28 z M244.88 21.56 c-4.8 0 -8.36 3.68 -8.36 8.44 c0 4.72 3.56 8.4 8.36 8.4 c4.76 0 8.32 -3.68 8.32 -8.4 c0 -4.76 -3.56 -8.44 -8.32 -8.44 z M276.8 35.28 c-1.84 3.04 -4.76 5 -9.24 5 c-6.04 0 -10.4 -4.48 -10.4 -10.32 c0 -5.8 4.4 -10.28 10.24 -10.28 c5.96 0 10.12 4.56 10.12 9.68 c0 0.64 -0.04 1.08 -0.08 1.32 l-18.2 0 c0.32 4.88 4 7.68 8.32 7.68 c3.96 0 6.16 -1.56 7.72 -4.12 z M267.40000000000003 21.56 c-4.08 0 -7.68 2.84 -8.16 7.32 l16.24 0 c-0.4 -4.52 -3.96 -7.32 -8.08 -7.32 z" />
    </g>
    <g transform="matrix(0.7355865819156576,0,0,0.7355865819156576,141.80874775878328,45.366203997021124)"
       fill="#34d399">
        <path d="M9.34 5.119999999999999 l5.24 14.88 l-1.64 0 c-0.18 0 -0.32 -0.12 -0.36 -0.26 l-1.34 -3.86 l-7.64 0 l-1.34 3.86 c-0.04 0.14 -0.2 0.26 -0.36 0.26 l-1.64 0 l4.88 -13.9 c0.24 -0.66 0.86 -1.12 1.58 -1.12 l2.38 0 c0.1 0 0.2 0.06 0.24 0.14 z M4.2 14.16 l6.44 0 l-2.6 -7.46 l-0.98 0 c-0.16 0 -0.3 0.1 -0.36 0.26 z M29.3 10 c1.62 0 2.92 1.3 2.92 2.92 l0 7.08 l-1.52 0 c-0.12 0 -0.22 -0.1 -0.22 -0.22 l0 -6.96 c0 -0.64 -0.52 -1.18 -1.18 -1.18 l-3.62 0 c-0.12 0 -0.22 0.1 -0.22 0.22 l0 7.92 c0 0.12 -0.1 0.22 -0.22 0.22 l-1.52 0 l0 -8.7 c0 -0.72 0.58 -1.3 1.3 -1.3 l4.28 0 z M37.6 20 c-1.62 0 -2.92 -1.3 -2.92 -2.92 l0 -4.24 c0 -1.86 1.3 -2.84 2.92 -2.84 l2.68 0 c1.62 0 2.92 0.98 2.92 2.84 l0 2.3 c0 0.34 -0.04 0.62 -0.52 0.62 l-5.48 0 c-0.32 0 -0.6 -0.14 -0.78 -0.38 l0 1.78 c0 0.66 0.52 1.18 1.18 1.18 l4.96 0 c0.12 0 0.22 0.1 0.22 0.22 l0 1.44 l-5.18 0 z M40.34 11.64 l-2.74 0 c-0.66 0 -1.18 0.38 -1.18 1.18 l0 1.08 c0 0.12 0.08 0.2 0.2 0.22 l4.66 0 c0.12 0 0.22 -0.1 0.22 -0.22 l0 -1.08 c0 -0.8 -0.38 -1.18 -1.16 -1.18 z M45.92 14.64 c-0.32 -0.06 -0.56 -0.34 -0.56 -0.66 l0 -1.34 c0 -1.62 1.12 -2.64 2.74 -2.64 l5.48 0 l0 1.42 c0 0.12 -0.1 0.22 -0.22 0.22 l-5.26 0 c-0.66 0 -1 0.32 -1 0.98 l0 0.58 c0 0.1 0.08 0.18 0.18 0.22 l6.18 1.46 c0.32 0.06 0.54 0.34 0.54 0.66 l0 1.78 c0 1.74 -1.24 2.68 -2.86 2.68 l-5.66 0 l0 -1.42 c0 -0.12 0.1 -0.22 0.22 -0.22 l5.44 0 c0.66 0 1.24 -0.38 1.24 -1.04 l0 -0.94 c0 -0.1 -0.08 -0.18 -0.18 -0.2 z M61.18000000000001 18.34 c0.12 0 0.22 0.1 0.22 0.22 l0 1.44 l-2.02 0 c-1.6 0 -2.92 -1.3 -2.92 -2.92 l0 -11.92 l1.52 0 c0.12 0 0.22 0.1 0.22 0.22 l0 5 c0.1 -0.22 0.32 -0.36 0.58 -0.36 l2.12 0 l0 1.44 c0 0.12 -0.1 0.2 -0.22 0.2 l-2.48 0 l0 5.5 c0 0.66 0.52 1.18 1.18 1.18 l1.8 0 z M66.12 20 c-1.62 0 -2.92 -1.3 -2.92 -2.92 l0 -4.24 c0 -1.86 1.3 -2.84 2.92 -2.84 l2.68 0 c1.62 0 2.92 0.98 2.92 2.84 l0 2.3 c0 0.34 -0.04 0.62 -0.52 0.62 l-5.48 0 c-0.32 0 -0.6 -0.14 -0.78 -0.38 l0 1.78 c0 0.66 0.52 1.18 1.18 1.18 l4.96 0 c0.12 0 0.22 0.1 0.22 0.22 l0 1.44 l-5.18 0 z M68.86000000000001 11.64 l-2.74 0 c-0.66 0 -1.18 0.38 -1.18 1.18 l0 1.08 c0 0.12 0.08 0.2 0.2 0.22 l4.66 0 c0.12 0 0.22 -0.1 0.22 -0.22 l0 -1.08 c0 -0.8 -0.38 -1.18 -1.16 -1.18 z M74.00000000000001 12.92 c0 -1.62 1.26 -2.92 2.88 -2.92 l2.32 0 c0.64 0 1.14 0.3 1.38 0.64 l0 -5.42 c0 -0.12 0.1 -0.22 0.22 -0.22 l1.52 0 l0 14.36 c0 0.36 -0.28 0.64 -0.64 0.64 l-4.76 0 c-1.62 0 -2.92 -1.3 -2.92 -2.92 l0 -4.16 z M75.74000000000001 12.84 l0 4.32 c0 0.66 0.52 1.18 1.18 1.18 l3.44 0 c0.12 0 0.22 -0.08 0.22 -0.2 l0 -5.46 c-0.04 -0.54 -0.46 -0.96 -0.96 -1.02 l-2.7 0 c-0.66 0 -1.18 0.52 -1.18 1.18 z M98.80000000000001 22.04 l0 -2.84 c-0.2 0.36 -0.74 0.8 -1.38 0.8 l-2.4 0 c-1.86 0 -2.8 -1.32 -2.8 -2.92 l0 -4.26 c0 -1.6 1.02 -2.84 2.92 -2.84 l4.76 0 c0.36 0 0.64 0.3 0.64 0.64 l0 11.34 c0 1.62 -1.32 2.92 -2.92 2.92 l-4.76 0 l0 -1.44 c0 -0.12 0.1 -0.22 0.22 -0.22 l4.54 0 c0.64 0 1.18 -0.52 1.18 -1.18 z M93.96000000000001 12.82 l0 4.34 c0 0.64 0.26 1.18 1.1 1.18 l2.76 0 c0.52 -0.08 0.94 -0.5 0.98 -1.02 l0 -5.46 c0 -0.12 -0.1 -0.22 -0.22 -0.22 l-3.44 0 c-0.92 0 -1.18 0.54 -1.18 1.18 z M107.86 10 c1.62 0 2.92 0.98 2.92 2.8 l0 6.56 c0 0.36 -0.28 0.64 -0.64 0.64 l-0.22 0 l-0.88 0 l-3.58 0 c-1.62 0 -2.92 -1.3 -2.92 -2.92 l0 -0.62 c0 -1.62 1.3 -2.92 2.92 -2.92 l3.38 0 c0.12 0 0.22 -0.1 0.22 -0.22 l0 -0.5 c0 -0.64 -0.42 -1.18 -1.2 -1.18 l-3.98 0 c-0.12 0 -0.22 -0.1 -0.22 -0.22 l0 -1.42 l4.2 0 z M104.28 17.12 c0 0.66 0.52 1.18 1.18 1.18 l3.4 0 c0.12 0 0.2 -0.1 0.2 -0.22 l0 -3.18 c-0.1 0.18 -0.3 0.28 -0.52 0.3 l-3.08 0 c-0.66 0 -1.18 0.52 -1.18 1.18 l0 0.74 z M122.36 10 c1.62 0 2.92 1.3 2.92 2.92 l0 7.08 l-1.52 0 c-0.12 0 -0.22 -0.1 -0.22 -0.22 l0 -6.96 c0 -0.64 -0.52 -1.18 -1.18 -1.18 l-2.6 0 c0.2 0.12 0.36 0.32 0.36 0.56 l0 7.8 l-1.52 0 c-0.12 0 -0.22 -0.1 -0.22 -0.22 l0 -7.92 c0 -0.12 -0.1 -0.22 -0.22 -0.22 l-3.02 0 c-0.1 0 -0.18 0.08 -0.2 0.18 l0 7.96 c0 0.12 -0.1 0.22 -0.22 0.22 l-1.52 0 l0 -8.7 c0 -0.72 0.58 -1.3 1.3 -1.3 l7.86 0 z M130.57999999999998 20 c-1.62 0 -2.92 -1.3 -2.92 -2.92 l0 -4.24 c0 -1.86 1.3 -2.84 2.92 -2.84 l2.68 0 c1.62 0 2.92 0.98 2.92 2.84 l0 2.3 c0 0.34 -0.04 0.62 -0.52 0.62 l-5.48 0 c-0.32 0 -0.6 -0.14 -0.78 -0.38 l0 1.78 c0 0.66 0.52 1.18 1.18 1.18 l4.96 0 c0.12 0 0.22 0.1 0.22 0.22 l0 1.44 l-5.18 0 z M133.32 11.64 l-2.74 0 c-0.66 0 -1.18 0.38 -1.18 1.18 l0 1.08 c0 0.12 0.08 0.2 0.2 0.22 l4.66 0 c0.12 0 0.22 -0.1 0.22 -0.22 l0 -1.08 c0 -0.8 -0.38 -1.18 -1.16 -1.18 z M151.72 20.14 l-2.64 0 c-1.62 0 -2.92 -1.3 -2.92 -2.92 l0 -4.44 c0 -1.6 1.3 -2.92 2.92 -2.92 l2.64 0 c1.62 0 2.94 1.32 2.94 2.92 l0 4.44 c0 1.62 -1.32 2.92 -2.94 2.92 z M149.08 11.52 c-0.66 0 -1.18 0.54 -1.18 1.18 l0 4.6 c0 0.66 0.52 1.2 1.18 1.2 l2.64 0 c0.66 0 1.2 -0.54 1.2 -1.2 l0 -4.6 c0 -0.64 -0.54 -1.18 -1.2 -1.18 l-2.64 0 z M160 4.9399999999999995 l2.02 0 l0 1.44 c0 0.12 -0.1 0.22 -0.22 0.22 l-1.8 0 c-0.66 0 -1.18 0.52 -1.18 1.18 l0 2.58 c0.1 -0.18 0.3 -0.3 0.54 -0.3 l1.96 0 l0 1.44 c0 0.12 -0.1 0.2 -0.22 0.2 l-2.28 0 l0 8.08 c0 0.12 -0.1 0.22 -0.22 0.22 l-1.52 0 l0 -12.14 c0 -1.62 1.3 -2.92 2.92 -2.92 z M170.48000000000002 4.98 l10.64 0 l0 1.46 c0 0.14 -0.12 0.26 -0.26 0.26 l-4.28 0 l0 13.04 c0 0.14 -0.1 0.26 -0.26 0.26 l-1.62 0 l0 -13.3 l-4.48 0 l0 -1.46 c0 -0.14 0.12 -0.26 0.26 -0.26 z M183 10 c0.12 0 0.22 0.08 0.22 0.2 l0 9.8 l-1.52 0 c-0.12 0 -0.22 -0.1 -0.22 -0.22 l0 -9.78 l1.52 0 z M183 5.52 c0.12 0 0.22 0.1 0.22 0.22 l0 1.64 l-1.52 0 c-0.12 0 -0.22 -0.1 -0.22 -0.22 l0 -1.64 l1.52 0 z M188.5 11.66 c-0.66 0 -1.18 0.54 -1.18 1.2 l0 4.3 c0 0.66 0.52 1.18 1.18 1.18 l3.54 0 c0.12 0 0.22 0.1 0.22 0.22 l0 1.44 l-3.76 0 c-1.6 0 -2.92 -1.3 -2.92 -2.92 l0 -4.14 c0 -1.62 1.32 -2.92 2.92 -2.92 l3.76 0 l0 1.44 c0 0.12 -0.1 0.2 -0.22 0.2 l-3.54 0 z M200.16 13.1 c0 0.14 -0.12 0.26 -0.26 0.26 l-5.38 0 l0 -1.46 c0 -0.14 0.12 -0.26 0.26 -0.26 l5.38 0 l0 1.46 z M202 4.98 l10.64 0 l0 1.46 c0 0.14 -0.12 0.26 -0.26 0.26 l-4.28 0 l0 13.04 c0 0.14 -0.1 0.26 -0.26 0.26 l-1.62 0 l0 -13.3 l-4.48 0 l0 -1.46 c0 -0.14 0.12 -0.26 0.26 -0.26 z M219.11999999999998 10 c1.62 0 2.92 0.98 2.92 2.8 l0 6.56 c0 0.36 -0.28 0.64 -0.64 0.64 l-0.22 0 l-0.88 0 l-3.58 0 c-1.62 0 -2.92 -1.3 -2.92 -2.92 l0 -0.62 c0 -1.62 1.3 -2.92 2.92 -2.92 l3.38 0 c0.12 0 0.22 -0.1 0.22 -0.22 l0 -0.5 c0 -0.64 -0.42 -1.18 -1.2 -1.18 l-3.98 0 c-0.12 0 -0.22 -0.1 -0.22 -0.22 l0 -1.42 l4.2 0 z M215.54 17.12 c0 0.66 0.52 1.18 1.18 1.18 l3.4 0 c0.12 0 0.2 -0.1 0.2 -0.22 l0 -3.18 c-0.1 0.18 -0.3 0.28 -0.52 0.3 l-3.08 0 c-0.66 0 -1.18 0.52 -1.18 1.18 l0 0.74 z M227.18 11.66 c-0.66 0 -1.18 0.54 -1.18 1.2 l0 4.3 c0 0.66 0.52 1.18 1.18 1.18 l3.54 0 c0.12 0 0.22 0.1 0.22 0.22 l0 1.44 l-3.76 0 c-1.6 0 -2.92 -1.3 -2.92 -2.92 l0 -4.14 c0 -1.62 1.32 -2.92 2.92 -2.92 l3.76 0 l0 1.44 c0 0.12 -0.1 0.2 -0.22 0.2 l-3.54 0 z M238.84 13.1 c0 0.14 -0.12 0.26 -0.26 0.26 l-5.38 0 l0 -1.46 c0 -0.14 0.12 -0.26 0.26 -0.26 l5.38 0 l0 1.46 z M240.68 4.98 l10.64 0 l0 1.46 c0 0.14 -0.12 0.26 -0.26 0.26 l-4.28 0 l0 13.04 c0 0.14 -0.1 0.26 -0.26 0.26 l-1.62 0 l0 -13.3 l-4.48 0 l0 -1.46 c0 -0.14 0.12 -0.26 0.26 -0.26 z M256.34000000000003 20.14 l-2.64 0 c-1.62 0 -2.92 -1.3 -2.92 -2.92 l0 -4.44 c0 -1.6 1.3 -2.92 2.92 -2.92 l2.64 0 c1.62 0 2.94 1.32 2.94 2.92 l0 4.44 c0 1.62 -1.32 2.92 -2.94 2.92 z M253.70000000000002 11.52 c-0.66 0 -1.18 0.54 -1.18 1.18 l0 4.6 c0 0.66 0.52 1.2 1.18 1.2 l2.64 0 c0.66 0 1.2 -0.54 1.2 -1.2 l0 -4.6 c0 -0.64 -0.54 -1.18 -1.2 -1.18 l-2.64 0 z M264.62 20 c-1.62 0 -2.92 -1.3 -2.92 -2.92 l0 -4.24 c0 -1.86 1.3 -2.84 2.92 -2.84 l2.68 0 c1.62 0 2.92 0.98 2.92 2.84 l0 2.3 c0 0.34 -0.04 0.62 -0.52 0.62 l-5.48 0 c-0.32 0 -0.6 -0.14 -0.78 -0.38 l0 1.78 c0 0.66 0.52 1.18 1.18 1.18 l4.96 0 c0.12 0 0.22 0.1 0.22 0.22 l0 1.44 l-5.18 0 z M267.36 11.64 l-2.74 0 c-0.66 0 -1.18 0.38 -1.18 1.18 l0 1.08 c0 0.12 0.08 0.2 0.2 0.22 l4.66 0 c0.12 0 0.22 -0.1 0.22 -0.22 l0 -1.08 c0 -0.8 -0.38 -1.18 -1.16 -1.18 z" />
    </g>
    <g transform="matrix(0.7355865819156576,0,0,0.7355865819156576,186.13200795961131,70.33677915878484)"
       fill="#34d399">
        <path d="M11.74 10 l1.52 0 l0 8.7 c0 0.72 -0.58 1.3 -1.3 1.3 l-7.86 0 c-1.62 0 -2.92 -1.3 -2.92 -2.92 l0 -7.08 l1.52 0 c0.12 0 0.22 0.08 0.22 0.2 l0 6.96 c0 0.66 0.52 1.18 1.18 1.18 l2.6 0 c-0.2 -0.1 -0.34 -0.32 -0.34 -0.56 l0 -7.78 l1.52 0 c0.12 0 0.22 0.08 0.22 0.2 l0 7.92 c0 0.12 0.08 0.22 0.2 0.22 l3.02 0 c0.12 0 0.2 -0.1 0.2 -0.22 l0 0.02 l0 -7.94 c0 -0.12 0.1 -0.2 0.22 -0.2 z M18.76 10 l2.32 0 l0 1.44 c0 0.12 -0.1 0.22 -0.22 0.22 l-2.5 0 c-0.54 0 -0.92 0.42 -0.96 0.9 l0 7.44 l-1.52 0 c-0.12 0 -0.22 -0.1 -0.22 -0.22 l0 -9.78 l1.52 0 c0.12 0 0.22 0.08 0.22 0.2 l0 0.44 c0.24 -0.34 0.74 -0.64 1.36 -0.64 z M24.480000000000004 10 c0.12 0 0.22 0.08 0.22 0.2 l0 9.8 l-1.52 0 c-0.12 0 -0.22 -0.1 -0.22 -0.22 l0 -9.78 l1.52 0 z M24.480000000000004 5.52 c0.12 0 0.22 0.1 0.22 0.22 l0 1.64 l-1.52 0 c-0.12 0 -0.22 -0.1 -0.22 -0.22 l0 -1.64 l1.52 0 z M31.960000000000004 18.34 c0.12 0 0.22 0.1 0.22 0.22 l0 1.44 l-2.02 0 c-1.6 0 -2.92 -1.3 -2.92 -2.92 l0 -11.92 l1.52 0 c0.12 0 0.22 0.1 0.22 0.22 l0 5 c0.1 -0.22 0.32 -0.36 0.58 -0.36 l2.12 0 l0 1.44 c0 0.12 -0.1 0.2 -0.22 0.2 l-2.48 0 l0 5.5 c0 0.66 0.52 1.18 1.18 1.18 l1.8 0 z M38.72 18.34 c0.12 0 0.22 0.1 0.22 0.22 l0 1.44 l-2.02 0 c-1.6 0 -2.92 -1.3 -2.92 -2.92 l0 -11.92 l1.52 0 c0.12 0 0.22 0.1 0.22 0.22 l0 5 c0.1 -0.22 0.32 -0.36 0.58 -0.36 l2.12 0 l0 1.44 c0 0.12 -0.1 0.2 -0.22 0.2 l-2.48 0 l0 5.5 c0 0.66 0.52 1.18 1.18 1.18 l1.8 0 z M43.66 20 c-1.62 0 -2.92 -1.3 -2.92 -2.92 l0 -4.24 c0 -1.86 1.3 -2.84 2.92 -2.84 l2.68 0 c1.62 0 2.92 0.98 2.92 2.84 l0 2.3 c0 0.34 -0.04 0.62 -0.52 0.62 l-5.48 0 c-0.32 0 -0.6 -0.14 -0.78 -0.38 l0 1.78 c0 0.66 0.52 1.18 1.18 1.18 l4.96 0 c0.12 0 0.22 0.1 0.22 0.22 l0 1.44 l-5.18 0 z M46.4 11.64 l-2.74 0 c-0.66 0 -1.18 0.38 -1.18 1.18 l0 1.08 c0 0.12 0.08 0.2 0.2 0.22 l4.66 0 c0.12 0 0.22 -0.1 0.22 -0.22 l0 -1.08 c0 -0.8 -0.38 -1.18 -1.16 -1.18 z M57.28 10 c1.62 0 2.92 1.3 2.92 2.92 l0 7.08 l-1.52 0 c-0.12 0 -0.22 -0.1 -0.22 -0.22 l0 -6.96 c0 -0.64 -0.52 -1.18 -1.18 -1.18 l-3.62 0 c-0.12 0 -0.22 0.1 -0.22 0.22 l0 7.92 c0 0.12 -0.1 0.22 -0.22 0.22 l-1.52 0 l0 -8.7 c0 -0.72 0.58 -1.3 1.3 -1.3 l4.28 0 z M71.82000000000001 10 c0.12 0 0.22 0.08 0.22 0.2 l0 9.8 l-1.52 0 c-0.12 0 -0.22 -0.1 -0.22 -0.22 l0 -9.78 l1.52 0 z M71.82000000000001 5.52 c0.12 0 0.22 0.1 0.22 0.22 l0 1.64 l-1.52 0 c-0.12 0 -0.22 -0.1 -0.22 -0.22 l0 -1.64 l1.52 0 z M80.14000000000001 10 c1.62 0 2.92 1.3 2.92 2.92 l0 7.08 l-1.52 0 c-0.12 0 -0.22 -0.1 -0.22 -0.22 l0 -6.96 c0 -0.64 -0.52 -1.18 -1.18 -1.18 l-3.62 0 c-0.12 0 -0.22 0.1 -0.22 0.22 l0 7.92 c0 0.12 -0.1 0.22 -0.22 0.22 l-1.52 0 l0 -8.7 c0 -0.72 0.58 -1.3 1.3 -1.3 l4.28 0 z M98.62000000000002 17.46 l4.24 -12.24 c0.06 -0.12 0.2 -0.24 0.34 -0.24 l1.74 0 l-5.2 14.76 c-0.04 0.14 -0.2 0.26 -0.34 0.26 l-1.58 0 c-0.14 0 -0.3 -0.12 -0.34 -0.26 l-5.2 -14.76 l1.74 0 c0.14 0 0.3 0.12 0.34 0.24 z M106.38000000000002 9.98 l1.52 0 c0.12 0 0.22 0.1 0.22 0.22 l0 6.96 c0 0.66 0.52 1.18 1.18 1.18 l2.64 0 c0.66 0 1.2 -0.52 1.2 -1.18 l0 -6.96 c0 -0.12 0.1 -0.22 0.22 -0.22 l1.52 0 l0 7.1 c0 1.62 -1.32 2.92 -2.94 2.92 l-2.64 0 c-1.62 0 -2.92 -1.3 -2.92 -2.92 l0 -7.1 z M120.22000000000003 20 c-1.62 0 -2.92 -1.3 -2.92 -2.92 l0 -4.24 c0 -1.86 1.3 -2.84 2.92 -2.84 l2.68 0 c1.62 0 2.92 0.98 2.92 2.84 l0 2.3 c0 0.34 -0.04 0.62 -0.52 0.62 l-5.48 0 c-0.32 0 -0.6 -0.14 -0.78 -0.38 l0 1.78 c0 0.66 0.52 1.18 1.18 1.18 l4.96 0 c0.12 0 0.22 0.1 0.22 0.22 l0 1.44 l-5.18 0 z M122.96000000000002 11.64 l-2.74 0 c-0.66 0 -1.18 0.38 -1.18 1.18 l0 1.08 c0 0.12 0.08 0.2 0.2 0.22 l4.66 0 c0.12 0 0.22 -0.1 0.22 -0.22 l0 -1.08 c0 -0.8 -0.38 -1.18 -1.16 -1.18 z M127.80000000000003 20 c-0.14 0 -0.26 -0.12 -0.26 -0.26 l0 -1.44 l4.82 0 c0.82 0 1.5 -0.68 1.5 -1.52 l0 -10.08 l-2.12 0 c-0.14 0 -0.26 -0.12 -0.26 -0.26 l0 -1.44 l4.26 0 l0 11.62 c0 1.86 -1.52 3.38 -3.38 3.38 l-4.56 0 z M138.06000000000003 18.28 l7.4 0 c0.84 0 1.48 -0.68 1.48 -1.52 l0 -1.82 c0 -0.2 -0.16 -0.42 -0.36 -0.48 l-7.68 -2.56 c-0.6 -0.2 -1.1 -0.88 -1.1 -1.52 l0 -2.38 c0 -1.88 1.52 -3.02 3.4 -3.02 l7.12 0 l0 1.46 c0 0.14 -0.1 0.26 -0.26 0.26 l-6.86 0 c-0.84 0 -1.54 0.54 -1.54 1.38 l0 1.94 c0 0.22 0.16 0.44 0.36 0.5 l7.68 2.54 c0.6 0.2 1.04 0.9 1.04 1.54 l0 2.14 c0 1.88 -1.42 3.26 -3.28 3.26 l-7.66 0 l0 -1.46 c0 -0.16 0.12 -0.26 0.26 -0.26 z" />
    </g>
</svg>
